<?xml version="1.0" ?><svg id="Layer_1" style="enable-background:new 0 0 256 256;" version="1.1" viewBox="0 0 256 256" xml:space="preserve" xmlns="http://www.w3.org/2000/svg" xmlns:xlink="http://www.w3.org/1999/xlink"><g><path d="M92.4,129H60.9c-2.7,0-4.9,2.2-4.9,4.9v25.9c0,2.7,2.2,4.9,4.9,4.9h31.5c2.7,0,4.9-2.2,4.9-4.9v-25.9   C97.3,131.2,95.1,129,92.4,129z M87.5,154.9H65.7v-16.1h21.8V154.9z"/><path d="M143.8,129h-31.5c-2.7,0-4.9,2.2-4.9,4.9v25.9c0,2.7,2.2,4.9,4.9,4.9h31.5c2.7,0,4.9-2.2,4.9-4.9v-25.9   C148.7,131.2,146.5,129,143.8,129z M138.9,154.9h-21.8v-16.1h21.8V154.9z"/><path d="M195.3,129h-31.5c-2.7,0-4.9,2.2-4.9,4.9v25.9c0,2.7,2.2,4.9,4.9,4.9h31.5c2.7,0,4.9-2.2,4.9-4.9v-25.9   C200.2,131.2,198,129,195.3,129z M190.4,154.9h-21.8v-16.1h21.8V154.9z"/><path d="M248.6,90.7l-17.2-51.9c-0.7-2-2.5-3.4-4.6-3.4H29.3c-2.1,0-4,1.3-4.6,3.4L7.4,90.7c-0.4,0.7-0.6,1.4-0.6,2.3   c-0.1,2.7,2.2,4.9,4.9,5c6.7,0.2,13.1,2.7,17.8,7.2c0.7,0.7,1.5,1.4,2.3,2.1l-0.1,108.4c0,1.3,0.5,2.5,1.4,3.5   c0.9,0.9,2.2,1.4,3.5,1.4h182.8c2.7,0,4.9-2.2,4.9-4.9l0-108.5c0.7-0.6,1.5-1.2,2.1-1.9c4.9-4.5,11.2-7.1,18-7.3   c2.7-0.1,4.8-2.4,4.8-5C249.2,92.2,248.9,91.4,248.6,90.7z M214.5,210.7h-173l0-19.7h172.9L214.5,210.7z M214.5,181.3H41.5   l0.1-68.9c2.7,0.8,5.5,1.3,8.4,1.3c7.7,0,15-3,20.5-8.5c9.7-9.7,26.6-9.6,36.9,0.1c5.6,5.4,12.9,8.4,20.6,8.4c7.7,0,15-3,20.6-8.4   c10.1-9.7,27-9.7,36.9-0.1c5.5,5.5,12.7,8.5,20.5,8.5c2.9,0,5.7-0.5,8.5-1.3L214.5,181.3z M219.6,98.2c-0.6,0.6-1.3,1.2-2.1,1.8   c-0.6,0.3-1.1,0.6-1.6,1.1c-3,1.8-6.4,2.8-9.9,2.8c-5.1,0-9.9-2-13.6-5.7c-13.7-13.2-36.8-13.2-50.6,0c-3.8,3.6-8.7,5.6-13.8,5.7   c-5.1,0-10.1-2-13.9-5.7c-7-6.6-16.3-9.9-25.5-9.9c-9.2,0-18.4,3.3-25.1,10c-3.6,3.6-8.4,5.6-13.5,5.6c-3.4,0-6.7-0.9-9.7-2.6   c-0.5-0.6-1.2-1-1.9-1.3c-0.7-0.5-1.4-1.1-2.1-1.8c-5-4.7-11.3-7.9-17.9-9.2l14.5-43.7h190.3l14.5,43.7   C230.9,90.3,224.7,93.4,219.6,98.2z"/></g></svg>